<svg xmlns="http://www.w3.org/2000/svg" id="Layer_1" version="1.1" viewBox="60 22 305 168">
  
  <defs>
    
  </defs>
  
  <g>
    <g>
      <path class="st0" d="M219.01,184c.55.41,4.16-7.9,4.58-8.66,11.1-20.08,31.23-36.67,47.92-52.08,7.79-7.2,15.47-14.54,23.3-21.7,10.5-1.86,21.75-1.15,32.46-1.54,8.98-.32,17.99-.66,27-1,1.5-.06,6.68-1.65,3.97.97l-59.95,51.05c-5.35.63-10.7,1.24-16.04,1.96-19.97,2.69-40.66,13.66-54.76,28.74-1.38,1.48-7.01,9.28-8.24,9.28-.94,0-5.84-6.77-6.99-8.03-18.94-20.64-44.2-30.58-72.05-31.95-19.98-17.87-42.08-33.59-62.07-51.4-.33-.3-.96.03-.64-1.14l64.49,2.26c14.35,12.98,28.28,26.38,42.25,39.75,11.6,11.11,21.93,19.78,30.2,33.8.88,1.5,4.15,9.36,4.57,9.68Z" fill="#F7F7F7"></path>
      <path class="st0" d="M211.5,120c.68.86.9-.29,1.12-.64.73-1.13,1.21-2.77,1.98-4.01,9.42-15.33,27.5-24,32.41-42.35.67.09.88.68.97,1.27,1.88,11.35-.33,23.21-5.72,33.24-8.92,16.59-24.1,23.85-22.75,45.73.06,1.04,1.2,6.01.99,6.25-.72.84-.95-.42-1.14-.64-17.72-19.95-39.65-40.78-24.95-69.7,9.8-19.27,37-33.7,36.62-57.42-.02-1.17-1.28-6.04-1.03-6.24s1.09-.06,1.52.33c.71.64,3.91,6.11,4.56,7.33,7.21,13.59,7.32,27.02-.18,40.49-5.64,10.12-24.4,25.44-24.4,36.6,0,1.39-.3,9.37,0,9.75Z" fill="#F7F7F7"></path>
    </g>
    <path class="st0" d="M210.82,191.02c-16.04-8.48-36.5-17.61-54.85-18.81-.42-.57-4.42-3.37-3.5-4.28,7.11-1.51,30.58,5.92,37.87,9.41,1.35-4.04-27.56-12.17-31.21-12.32-8.68-.36-12.95,2.59-16.39-7.52,20.59,1,54.51,12.69,68.07,33.52Z" fill="#F7F7F7"></path>
    <path class="st0" d="M226.32,191.02c16.04-8.48,36.5-17.61,54.85-18.81.42-.57,4.42-3.37,3.5-4.28-7.11-1.51-30.58,5.92-37.87,9.41-1.35-4.04,27.56-12.17,31.21-12.32,8.68-.36,12.95,2.59,16.39-7.52-20.59,1-54.51,12.69-68.07,33.52Z" fill="#F7F7F7"></path>
  </g>
  
  
  
  
  
</svg>