<?xml version="1.0"?>
<svg xmlns="http://www.w3.org/2000/svg" viewBox="200 22 50 168"><path xmlns="http://www.w3.org/2000/svg" class="st0" d="M211.5,120c.68.86.9-.29,1.12-.64.73-1.13,1.21-2.77,1.98-4.01,9.42-15.33,27.5-24,32.41-42.35.67.09.88.68.97,1.27,1.88,11.35-.33,23.21-5.72,33.24-8.92,16.59-24.1,23.85-22.75,45.73.06,1.04,1.2,6.01.99,6.25-.72.84-.95-.42-1.14-.64-17.72-19.95-39.65-40.78-24.95-69.7,9.8-19.27,37-33.7,36.62-57.42-.02-1.17-1.28-6.04-1.03-6.24s1.09-.06,1.52.33c.71.64,3.91,6.11,4.56,7.33,7.21,13.59,7.32,27.02-.18,40.49-5.64,10.12-24.4,25.44-24.4,36.6,0,1.39-.3,9.37,0,9.75Z" fill="#DFAF37"></path></svg>