<?xml version="1.0" encoding="UTF-8"?>
<svg id="Layer_1" xmlns="http://www.w3.org/2000/svg" version="1.1" viewBox="0 0 292 93">
  <!-- Generator: Adobe Illustrator 29.8.1, SVG Export Plug-In . SVG Version: 2.1.1 Build 2)  -->
  <defs>
    <style>
      .st0 {
        fill: #dfaf37;
      }

      .st1 {
        fill: none;
        stroke: #dfaf37;
        stroke-linecap: round;
        stroke-width: 2.5px;
      }

      .st2 {
        fill: #f7f7f7;
      }

      .st3 {
        display: none;
        fill: #050505;
      }
    </style>
  </defs>
  <rect class="st3" x="-80" y="-187" width="439" height="280"/>
  <path class="st0" d="M143.7,25.1c.33.31-1.69,6.97-1.29,8.21h11.39c1.16,0-.15,5.53-.62,5.86-1.14.8-11.97-.28-12.47.21l-5.18,25.46h-6.45l5.16-25.49h-12.04c-.23-.82.61-5.76.9-6.01.62-.54,11.38.53,12.37-.1.61-.39,1.04-8.03,1.99-8.15.75-.09,6.01-.21,6.23,0h0Z"/>
  <g>
    <path class="st2" d="M38.35,35.95l-14.92,28.68h-10.15l-2.54-28.68h6.75l1.33,13.59c.3,2.88.34,4,.65,9.46h.17c2.71-5.63,2.97-6.11,4.69-9.46l7.14-13.59h6.88Z"/>
    <path class="st2" d="M58.34,64.63h-6.62l6.11-28.68h6.62l-6.11,28.68Z"/>
    <path class="st2" d="M107.28,54.09c-.13.43-.17.77-.21.9-1.12,5.16-2.11,6.84-4.86,8.38-2.28,1.25-3.87,1.46-10.06,1.46-4.51,0-6.15-.3-7.65-1.42-1.46-1.08-2.32-3.01-2.32-5.33,0-1.46,1.03-7.57,1.98-11.44,1.2-5.25,2.71-7.57,5.85-9.33,2.32-1.25,4.43-1.59,10.23-1.59,4.6,0,5.89.21,7.48,1.29,1.12.77,1.76,2.32,1.76,4.13,0,1.08-.13,2.06-.65,4.73h-6.58c.3-1.38.34-1.81.34-2.32,0-1.72-.95-2.15-4.64-2.15-4.08,0-5.5.69-6.32,3.1-.86,2.45-2.45,10.19-2.45,11.91,0,2.11,1.16,2.75,4.94,2.75,4.9,0,5.76-.64,6.58-5.07h6.58Z"/>
  </g>
  <g>
    <path class="st2" d="M184.46,36.94c2.37,1.12,3.48,3.05,3.48,6.06,0,2.41-1.81,11.31-2.88,14.19-1.29,3.4-3.01,5.38-5.85,6.62-2.06.9-4.51,1.25-8.9,1.25s-6.15-.3-7.87-1.2c-2.02-1.12-3.05-3.01-3.05-5.76,0-2.58,1.76-11.09,3.01-14.4,1.25-3.35,2.92-5.16,5.93-6.54,2.06-.9,4.3-1.2,8.94-1.2,3.83,0,5.68.26,7.18.99h.01ZM169.54,43.43c-.77,1.08-1.07,1.98-2.06,6.49-.86,3.91-1.12,5.46-1.12,6.49,0,2.54.86,2.97,5.8,2.97,4.56,0,5.72-.82,6.92-4.99.69-2.45,1.89-8.56,1.89-9.76,0-1.38-.39-2.15-1.25-2.54-.77-.39-1.63-.47-4.26-.47-3.7,0-4.86.34-5.93,1.81h0Z"/>
    <path class="st2" d="M211.72,36.16h14.28c2.97,0,4.77.3,5.98.95,1.55.86,2.37,2.37,2.37,4.3,0,2.84-1.29,7.48-2.54,9.25-1.03,1.42-2.19,2.02-4.99,2.62l-.04.21c2.75.17,4.08,1.42,4.08,3.74,0,.6-.04.99-.26,1.89l-1.2,5.72h-6.71l.95-4.47c.17-.73.21-1.2.21-1.72,0-1.68-.9-2.36-3.1-2.36h-6.67l-1.85,8.56h-6.62l6.11-28.68h0ZM222.13,50.66c2.28,0,3.4-.6,4.08-2.24.39-.82.99-3.7.99-4.51,0-1.59-.73-2.06-3.23-2.06h-6.84l-1.89,8.82h6.89Z"/>
    <path class="st2" d="M266.5,54.4l-2.24,10.45h-6.62l2.24-10.45-6.36-18.23h7.57l2.06,6.54c.26.9.69,2.45,1.38,5.07h.21l.9-1.29c1.59-2.24,1.98-2.75,2.75-3.78l4.9-6.54h7.61l-14.4,18.23h0Z"/>
  </g>
  <g>
    <path class="st0" d="M80.02,14.54h7.19l-1.13,2.29h-7.19l-2.31,4.65h-3.9l5.97-12.01h11.57l-1.13,2.29h-7.67l-1.39,2.79h0Z"/>
    <path class="st0" d="M114.9,9.46h8.4c1.75,0,2.78.13,3.44.4.84.36,1.2.99,1.04,1.8-.23,1.19-1.38,3.13-2.26,3.87-.72.59-1.46.85-3.15,1.1l-.04.09c1.61.07,2.29.59,2.09,1.57-.05.25-.11.41-.31.79l-1.18,2.39h-3.95l.93-1.87c.16-.31.23-.5.27-.72.14-.7-.34-.99-1.63-.99h-3.92l-1.8,3.58h-3.9l5.97-12.01h0ZM119.83,15.53c1.34,0,2.05-.25,2.59-.94.3-.34.89-1.55.96-1.89.13-.67-.26-.86-1.73-.86h-4.02l-1.84,3.69h4.05-.01Z"/>
    <path class="st0" d="M165.75,9.78c1.3.47,1.8,1.28,1.55,2.54-.2,1.01-2,4.74-2.87,5.94-1.04,1.42-2.22,2.25-3.99,2.77-1.29.38-2.76.52-5.34.52s-3.59-.13-4.53-.5c-1.1-.47-1.55-1.26-1.32-2.41.21-1.08,1.96-4.65,2.96-6.03,1.01-1.4,2.15-2.16,4.03-2.74,1.29-.38,2.63-.5,5.36-.5,2.25,0,3.32.11,4.14.41h0ZM156.43,12.5c-.54.45-.8.83-1.75,2.72-.83,1.64-1.11,2.29-1.19,2.72-.21,1.06.26,1.24,3.17,1.24,2.68,0,3.43-.34,4.49-2.09.61-1.03,1.82-3.58,1.92-4.09.11-.58-.05-.9-.52-1.06-.42-.16-.92-.2-2.47-.2-2.18,0-2.89.14-3.64.76h0Z"/>
    <path class="st0" d="M208.35,21.47h-3.85l2.51-5.04c.47-.96.7-1.39,1.87-3.46l.66-1.15h-.13l-1.03,1.12c-1.83,1.94-2.31,2.45-3.19,3.31l-5.28,5.22h-3.42l-.16-5.2c-.02-.92-.02-1.31.07-3.31l.06-1.1h-.13l-.48,1.13c-.86,2.07-1.1,2.63-1.52,3.44l-2.49,5.04h-3.85l5.97-12.01h6.15l.05,4.48c0,.74-.01,1.1-.12,2.79l-.08.94h.15l.84-.94c1.46-1.64,1.85-2.05,2.57-2.77l4.46-4.5h6.3l-5.97,12.01h.04Z"/>
  </g>
  <path class="st1" d="M6.87,15.53h55.87"/>
  <path class="st1" d="M227.55,15.53h55.87"/>
</svg>